<svg xmlns="http://www.w3.org/2000/svg" version="1.1" xmlns:xlink="http://www.w3.org/1999/xlink" xmlns:svgjs="http://svgjs.dev/svgjs" width="1440" height="560" preserveAspectRatio="none" viewBox="0 0 1440 560"><g mask="url(&quot;#SvgjsMask1001&quot;)" fill="none"><rect width="1440" height="560" x="0" y="0" fill="rgba(13, 22, 31, 1)"></rect><path d="M78.66 67.27L143.62 104.77L143.62 179.77L78.66 217.27L13.71 179.77L13.71 104.77zM78.66 292.27L143.62 329.77L143.62 404.77L78.66 442.27L13.71 404.77L13.71 329.77zM143.62 404.77L208.57 442.27L208.57 517.27L143.62 554.77L78.66 517.27L78.66 442.27zM208.57 517.27L273.52 554.77L273.52 629.77L208.57 667.27L143.62 629.77L143.62 554.77zM273.52 -45.23L338.48 -7.73L338.48 67.27L273.52 104.77L208.57 67.27L208.57 -7.73zM273.52 179.77L338.48 217.27L338.48 292.27L273.52 329.77L208.57 292.27L208.57 217.27zM338.48 292.27L403.43 329.77L403.43 404.77L338.48 442.27L273.52 404.77L273.52 329.77zM338.48 517.27L403.43 554.77L403.43 629.77L338.48 667.27L273.52 629.77L273.52 554.77zM403.43 179.77L468.39 217.27L468.39 292.27L403.43 329.77L338.48 292.27L338.48 217.27zM598.29 67.27L663.25 104.77L663.25 179.77L598.29 217.27L533.34 179.77L533.34 104.77zM533.34 179.77L598.29 217.27L598.29 292.27L533.34 329.77L468.39 292.27L468.39 217.27zM598.29 292.27L663.25 329.77L663.25 404.77L598.29 442.27L533.34 404.77L533.34 329.77zM533.34 404.77L598.29 442.27L598.29 517.27L533.34 554.77L468.39 517.27L468.39 442.27zM663.25 -45.23L728.2 -7.73L728.2 67.27L663.25 104.77L598.29 67.27L598.29 -7.73zM728.2 67.27L793.16 104.77L793.16 179.77L728.2 217.27L663.25 179.77L663.25 104.77zM728.2 292.27L793.16 329.77L793.16 404.77L728.2 442.27L663.25 404.77L663.25 329.77zM663.25 404.77L728.2 442.27L728.2 517.27L663.25 554.77L598.29 517.27L598.29 442.27zM728.2 517.27L793.16 554.77L793.16 629.77L728.2 667.27L663.25 629.77L663.25 554.77zM793.15 -45.23L858.11 -7.73L858.11 67.27L793.15 104.77L728.2 67.27L728.2 -7.73zM858.11 67.27L923.06 104.77L923.06 179.77L858.11 217.27L793.15 179.77L793.15 104.77zM858.11 517.27L923.06 554.77L923.06 629.77L858.11 667.27L793.15 629.77L793.15 554.77zM988.02 292.27L1052.97 329.77L1052.97 404.77L988.02 442.27L923.06 404.77L923.06 329.77zM1117.92 67.27L1182.88 104.77L1182.88 179.77L1117.92 217.27L1052.97 179.77L1052.97 104.77zM1117.92 517.27L1182.88 554.77L1182.88 629.77L1117.92 667.27L1052.97 629.77L1052.97 554.77zM1247.83 67.27L1312.78 104.77L1312.78 179.77L1247.83 217.27L1182.88 179.77L1182.88 104.77zM1182.88 179.77L1247.83 217.27L1247.83 292.27L1182.88 329.77L1117.92 292.27L1117.92 217.27zM1312.79 -45.23L1377.74 -7.73L1377.74 67.27L1312.79 104.77L1247.83 67.27L1247.83 -7.73zM1507.65 67.27L1572.6 104.77L1572.6 179.77L1507.65 217.27L1442.69 179.77L1442.69 104.77zM1507.65 292.27L1572.6 329.77L1572.6 404.77L1507.65 442.27L1442.69 404.77L1442.69 329.77zM1507.65 517.27L1572.6 554.77L1572.6 629.77L1507.65 667.27L1442.69 629.77L1442.69 554.77z" stroke="#03305d" stroke-width="2"></path><path d="M71.16 67.27 a7.5 7.5 0 1 0 15 0 a7.5 7.5 0 1 0 -15 0zM136.12 104.77 a7.5 7.5 0 1 0 15 0 a7.5 7.5 0 1 0 -15 0zM136.12 179.77 a7.5 7.5 0 1 0 15 0 a7.5 7.5 0 1 0 -15 0zM71.16 217.27 a7.5 7.5 0 1 0 15 0 a7.5 7.5 0 1 0 -15 0zM6.21 179.77 a7.5 7.5 0 1 0 15 0 a7.5 7.5 0 1 0 -15 0zM6.21 104.77 a7.5 7.5 0 1 0 15 0 a7.5 7.5 0 1 0 -15 0zM71.16 292.27 a7.5 7.5 0 1 0 15 0 a7.5 7.5 0 1 0 -15 0zM136.12 329.77 a7.5 7.5 0 1 0 15 0 a7.5 7.5 0 1 0 -15 0zM136.12 404.77 a7.5 7.5 0 1 0 15 0 a7.5 7.5 0 1 0 -15 0zM71.16 442.27 a7.5 7.5 0 1 0 15 0 a7.5 7.5 0 1 0 -15 0zM6.21 404.77 a7.5 7.5 0 1 0 15 0 a7.5 7.5 0 1 0 -15 0zM6.21 329.77 a7.5 7.5 0 1 0 15 0 a7.5 7.5 0 1 0 -15 0zM201.07 442.27 a7.5 7.5 0 1 0 15 0 a7.5 7.5 0 1 0 -15 0zM201.07 517.27 a7.5 7.5 0 1 0 15 0 a7.5 7.5 0 1 0 -15 0zM136.12 554.77 a7.5 7.5 0 1 0 15 0 a7.5 7.5 0 1 0 -15 0zM71.16 517.27 a7.5 7.5 0 1 0 15 0 a7.5 7.5 0 1 0 -15 0zM266.02 554.77 a7.5 7.5 0 1 0 15 0 a7.5 7.5 0 1 0 -15 0zM266.02 629.77 a7.5 7.5 0 1 0 15 0 a7.5 7.5 0 1 0 -15 0zM201.07 667.27 a7.5 7.5 0 1 0 15 0 a7.5 7.5 0 1 0 -15 0zM136.12 629.77 a7.5 7.5 0 1 0 15 0 a7.5 7.5 0 1 0 -15 0zM266.02 -45.23 a7.5 7.5 0 1 0 15 0 a7.5 7.5 0 1 0 -15 0zM330.98 -7.73 a7.5 7.5 0 1 0 15 0 a7.5 7.5 0 1 0 -15 0zM330.98 67.27 a7.5 7.5 0 1 0 15 0 a7.5 7.5 0 1 0 -15 0zM266.02 104.77 a7.5 7.5 0 1 0 15 0 a7.5 7.5 0 1 0 -15 0zM201.07 67.27 a7.5 7.5 0 1 0 15 0 a7.5 7.5 0 1 0 -15 0zM201.07 -7.73 a7.5 7.5 0 1 0 15 0 a7.5 7.5 0 1 0 -15 0zM266.02 179.77 a7.5 7.5 0 1 0 15 0 a7.5 7.5 0 1 0 -15 0zM330.98 217.27 a7.5 7.5 0 1 0 15 0 a7.5 7.5 0 1 0 -15 0zM330.98 292.27 a7.5 7.5 0 1 0 15 0 a7.5 7.5 0 1 0 -15 0zM266.02 329.77 a7.5 7.5 0 1 0 15 0 a7.5 7.5 0 1 0 -15 0zM201.07 292.27 a7.5 7.5 0 1 0 15 0 a7.5 7.5 0 1 0 -15 0zM201.07 217.27 a7.5 7.5 0 1 0 15 0 a7.5 7.5 0 1 0 -15 0zM395.93 329.77 a7.5 7.5 0 1 0 15 0 a7.5 7.5 0 1 0 -15 0zM395.93 404.77 a7.5 7.5 0 1 0 15 0 a7.5 7.5 0 1 0 -15 0zM330.98 442.27 a7.5 7.5 0 1 0 15 0 a7.5 7.5 0 1 0 -15 0zM266.02 404.77 a7.5 7.5 0 1 0 15 0 a7.5 7.5 0 1 0 -15 0zM330.98 517.27 a7.5 7.5 0 1 0 15 0 a7.5 7.5 0 1 0 -15 0zM395.93 554.77 a7.5 7.5 0 1 0 15 0 a7.5 7.5 0 1 0 -15 0zM395.93 629.77 a7.5 7.5 0 1 0 15 0 a7.5 7.5 0 1 0 -15 0zM330.98 667.27 a7.5 7.5 0 1 0 15 0 a7.5 7.5 0 1 0 -15 0zM395.93 179.77 a7.5 7.5 0 1 0 15 0 a7.5 7.5 0 1 0 -15 0zM460.89 217.27 a7.5 7.5 0 1 0 15 0 a7.5 7.5 0 1 0 -15 0zM460.89 292.27 a7.5 7.5 0 1 0 15 0 a7.5 7.5 0 1 0 -15 0zM590.79 67.27 a7.5 7.5 0 1 0 15 0 a7.5 7.5 0 1 0 -15 0zM655.75 104.77 a7.5 7.5 0 1 0 15 0 a7.5 7.5 0 1 0 -15 0zM655.75 179.77 a7.5 7.5 0 1 0 15 0 a7.5 7.5 0 1 0 -15 0zM590.79 217.27 a7.5 7.5 0 1 0 15 0 a7.5 7.5 0 1 0 -15 0zM525.84 179.77 a7.5 7.5 0 1 0 15 0 a7.5 7.5 0 1 0 -15 0zM525.84 104.77 a7.5 7.5 0 1 0 15 0 a7.5 7.5 0 1 0 -15 0zM590.79 292.27 a7.5 7.5 0 1 0 15 0 a7.5 7.5 0 1 0 -15 0zM525.84 329.77 a7.5 7.5 0 1 0 15 0 a7.5 7.5 0 1 0 -15 0zM655.75 329.77 a7.5 7.5 0 1 0 15 0 a7.5 7.5 0 1 0 -15 0zM655.75 404.77 a7.5 7.5 0 1 0 15 0 a7.5 7.5 0 1 0 -15 0zM590.79 442.27 a7.5 7.5 0 1 0 15 0 a7.5 7.5 0 1 0 -15 0zM525.84 404.77 a7.5 7.5 0 1 0 15 0 a7.5 7.5 0 1 0 -15 0zM590.79 517.27 a7.5 7.5 0 1 0 15 0 a7.5 7.5 0 1 0 -15 0zM525.84 554.77 a7.5 7.5 0 1 0 15 0 a7.5 7.5 0 1 0 -15 0zM460.89 517.27 a7.5 7.5 0 1 0 15 0 a7.5 7.5 0 1 0 -15 0zM460.89 442.27 a7.5 7.5 0 1 0 15 0 a7.5 7.5 0 1 0 -15 0zM655.75 -45.23 a7.5 7.5 0 1 0 15 0 a7.5 7.5 0 1 0 -15 0zM720.7 -7.73 a7.5 7.5 0 1 0 15 0 a7.5 7.5 0 1 0 -15 0zM720.7 67.27 a7.5 7.5 0 1 0 15 0 a7.5 7.5 0 1 0 -15 0zM590.79 -7.73 a7.5 7.5 0 1 0 15 0 a7.5 7.5 0 1 0 -15 0zM785.66 104.77 a7.5 7.5 0 1 0 15 0 a7.5 7.5 0 1 0 -15 0zM785.66 179.77 a7.5 7.5 0 1 0 15 0 a7.5 7.5 0 1 0 -15 0zM720.7 217.27 a7.5 7.5 0 1 0 15 0 a7.5 7.5 0 1 0 -15 0zM720.7 292.27 a7.5 7.5 0 1 0 15 0 a7.5 7.5 0 1 0 -15 0zM785.66 329.77 a7.5 7.5 0 1 0 15 0 a7.5 7.5 0 1 0 -15 0zM785.66 404.77 a7.5 7.5 0 1 0 15 0 a7.5 7.5 0 1 0 -15 0zM720.7 442.27 a7.5 7.5 0 1 0 15 0 a7.5 7.5 0 1 0 -15 0zM720.7 517.27 a7.5 7.5 0 1 0 15 0 a7.5 7.5 0 1 0 -15 0zM655.75 554.77 a7.5 7.5 0 1 0 15 0 a7.5 7.5 0 1 0 -15 0zM785.66 554.77 a7.5 7.5 0 1 0 15 0 a7.5 7.5 0 1 0 -15 0zM785.66 629.77 a7.5 7.5 0 1 0 15 0 a7.5 7.5 0 1 0 -15 0zM720.7 667.27 a7.5 7.5 0 1 0 15 0 a7.5 7.5 0 1 0 -15 0zM655.75 629.77 a7.5 7.5 0 1 0 15 0 a7.5 7.5 0 1 0 -15 0zM785.65 -45.23 a7.5 7.5 0 1 0 15 0 a7.5 7.5 0 1 0 -15 0zM850.61 -7.73 a7.5 7.5 0 1 0 15 0 a7.5 7.5 0 1 0 -15 0zM850.61 67.27 a7.5 7.5 0 1 0 15 0 a7.5 7.5 0 1 0 -15 0zM785.65 104.77 a7.5 7.5 0 1 0 15 0 a7.5 7.5 0 1 0 -15 0zM915.56 104.77 a7.5 7.5 0 1 0 15 0 a7.5 7.5 0 1 0 -15 0zM915.56 179.77 a7.5 7.5 0 1 0 15 0 a7.5 7.5 0 1 0 -15 0zM850.61 217.27 a7.5 7.5 0 1 0 15 0 a7.5 7.5 0 1 0 -15 0zM785.65 179.77 a7.5 7.5 0 1 0 15 0 a7.5 7.5 0 1 0 -15 0zM850.61 517.27 a7.5 7.5 0 1 0 15 0 a7.5 7.5 0 1 0 -15 0zM915.56 554.77 a7.5 7.5 0 1 0 15 0 a7.5 7.5 0 1 0 -15 0zM915.56 629.77 a7.5 7.5 0 1 0 15 0 a7.5 7.5 0 1 0 -15 0zM850.61 667.27 a7.5 7.5 0 1 0 15 0 a7.5 7.5 0 1 0 -15 0zM785.65 629.77 a7.5 7.5 0 1 0 15 0 a7.5 7.5 0 1 0 -15 0zM785.65 554.77 a7.5 7.5 0 1 0 15 0 a7.5 7.5 0 1 0 -15 0zM980.52 292.27 a7.5 7.5 0 1 0 15 0 a7.5 7.5 0 1 0 -15 0zM1045.47 329.77 a7.5 7.5 0 1 0 15 0 a7.5 7.5 0 1 0 -15 0zM1045.47 404.77 a7.5 7.5 0 1 0 15 0 a7.5 7.5 0 1 0 -15 0zM980.52 442.27 a7.5 7.5 0 1 0 15 0 a7.5 7.5 0 1 0 -15 0zM915.56 404.77 a7.5 7.5 0 1 0 15 0 a7.5 7.5 0 1 0 -15 0zM915.56 329.77 a7.5 7.5 0 1 0 15 0 a7.5 7.5 0 1 0 -15 0zM1110.42 67.27 a7.5 7.5 0 1 0 15 0 a7.5 7.5 0 1 0 -15 0zM1175.38 104.77 a7.5 7.5 0 1 0 15 0 a7.5 7.5 0 1 0 -15 0zM1175.38 179.77 a7.5 7.5 0 1 0 15 0 a7.5 7.5 0 1 0 -15 0zM1110.42 217.27 a7.5 7.5 0 1 0 15 0 a7.5 7.5 0 1 0 -15 0zM1045.47 179.77 a7.5 7.5 0 1 0 15 0 a7.5 7.5 0 1 0 -15 0zM1045.47 104.77 a7.5 7.5 0 1 0 15 0 a7.5 7.5 0 1 0 -15 0zM1110.42 517.27 a7.5 7.5 0 1 0 15 0 a7.5 7.5 0 1 0 -15 0zM1175.38 554.77 a7.5 7.5 0 1 0 15 0 a7.5 7.5 0 1 0 -15 0zM1175.38 629.77 a7.5 7.5 0 1 0 15 0 a7.5 7.5 0 1 0 -15 0zM1110.42 667.27 a7.5 7.5 0 1 0 15 0 a7.5 7.5 0 1 0 -15 0zM1045.47 629.77 a7.5 7.5 0 1 0 15 0 a7.5 7.5 0 1 0 -15 0zM1045.47 554.77 a7.5 7.5 0 1 0 15 0 a7.5 7.5 0 1 0 -15 0zM1240.33 67.27 a7.5 7.5 0 1 0 15 0 a7.5 7.5 0 1 0 -15 0zM1305.28 104.77 a7.5 7.5 0 1 0 15 0 a7.5 7.5 0 1 0 -15 0zM1305.28 179.77 a7.5 7.5 0 1 0 15 0 a7.5 7.5 0 1 0 -15 0zM1240.33 217.27 a7.5 7.5 0 1 0 15 0 a7.5 7.5 0 1 0 -15 0zM1240.33 292.27 a7.5 7.5 0 1 0 15 0 a7.5 7.5 0 1 0 -15 0zM1175.38 329.77 a7.5 7.5 0 1 0 15 0 a7.5 7.5 0 1 0 -15 0zM1110.42 292.27 a7.5 7.5 0 1 0 15 0 a7.5 7.5 0 1 0 -15 0zM1305.29 -45.23 a7.5 7.5 0 1 0 15 0 a7.5 7.5 0 1 0 -15 0zM1370.24 -7.73 a7.5 7.5 0 1 0 15 0 a7.5 7.5 0 1 0 -15 0zM1370.24 67.27 a7.5 7.5 0 1 0 15 0 a7.5 7.5 0 1 0 -15 0zM1305.29 104.77 a7.5 7.5 0 1 0 15 0 a7.5 7.5 0 1 0 -15 0zM1240.33 -7.73 a7.5 7.5 0 1 0 15 0 a7.5 7.5 0 1 0 -15 0zM1500.15 67.27 a7.5 7.5 0 1 0 15 0 a7.5 7.5 0 1 0 -15 0zM1565.1 104.77 a7.5 7.5 0 1 0 15 0 a7.5 7.5 0 1 0 -15 0zM1565.1 179.77 a7.5 7.5 0 1 0 15 0 a7.5 7.5 0 1 0 -15 0zM1500.15 217.27 a7.5 7.5 0 1 0 15 0 a7.5 7.5 0 1 0 -15 0zM1435.19 179.77 a7.5 7.5 0 1 0 15 0 a7.5 7.5 0 1 0 -15 0zM1435.19 104.77 a7.5 7.5 0 1 0 15 0 a7.5 7.5 0 1 0 -15 0zM1500.15 292.27 a7.5 7.5 0 1 0 15 0 a7.5 7.5 0 1 0 -15 0zM1565.1 329.77 a7.5 7.5 0 1 0 15 0 a7.5 7.5 0 1 0 -15 0zM1565.1 404.77 a7.5 7.5 0 1 0 15 0 a7.5 7.5 0 1 0 -15 0zM1500.15 442.27 a7.5 7.5 0 1 0 15 0 a7.5 7.5 0 1 0 -15 0zM1435.19 404.77 a7.5 7.5 0 1 0 15 0 a7.5 7.5 0 1 0 -15 0zM1435.19 329.77 a7.5 7.5 0 1 0 15 0 a7.5 7.5 0 1 0 -15 0zM1500.15 517.27 a7.5 7.5 0 1 0 15 0 a7.5 7.5 0 1 0 -15 0zM1565.1 554.77 a7.5 7.5 0 1 0 15 0 a7.5 7.5 0 1 0 -15 0zM1565.1 629.77 a7.5 7.5 0 1 0 15 0 a7.5 7.5 0 1 0 -15 0zM1500.15 667.27 a7.5 7.5 0 1 0 15 0 a7.5 7.5 0 1 0 -15 0zM1435.19 629.77 a7.5 7.5 0 1 0 15 0 a7.5 7.5 0 1 0 -15 0zM1435.19 554.77 a7.5 7.5 0 1 0 15 0 a7.5 7.5 0 1 0 -15 0z" fill="#03305d"></path><path d="M124.67 140.58L167.97 165.58L167.97 215.58L124.67 240.58L81.36 215.58L81.36 165.58zM167.97 215.58L211.27 240.58L211.27 290.58L167.97 315.58L124.67 290.58L124.67 240.58zM167.97 365.58L211.27 390.58L211.27 440.58L167.97 465.58L124.67 440.58L124.67 390.58zM124.67 440.58L167.97 465.58L167.97 515.58L124.67 540.58L81.36 515.58L81.36 465.58zM254.57 65.58L297.88 90.58L297.88 140.58L254.57 165.58L211.27 140.58L211.27 90.58zM254.57 515.58L297.88 540.58L297.88 590.58L254.57 615.58L211.27 590.58L211.27 540.58zM297.88 440.58L341.18 465.58L341.18 515.58L297.88 540.58L254.57 515.58L254.57 465.58zM471.09 -9.42L514.39 15.58L514.39 65.58L471.09 90.58L427.78 65.58L427.78 15.58zM557.69 -9.42L600.99 15.58L600.99 65.58L557.69 90.58L514.39 65.58L514.39 15.58zM600.99 65.58L644.3 90.58L644.3 140.58L600.99 165.58L557.69 140.58L557.69 90.58zM557.69 440.58L600.99 465.58L600.99 515.58L557.69 540.58L514.39 515.58L514.39 465.58zM644.3 140.58L687.6 165.58L687.6 215.58L644.3 240.58L600.99 215.58L600.99 165.58zM644.3 440.58L687.6 465.58L687.6 515.58L644.3 540.58L600.99 515.58L600.99 465.58zM774.2 215.58L817.51 240.58L817.51 290.58L774.2 315.58L730.9 290.58L730.9 240.58zM774.2 515.58L817.51 540.58L817.51 590.58L774.2 615.58L730.9 590.58L730.9 540.58zM860.81 65.58L904.11 90.58L904.11 140.58L860.81 165.58L817.51 140.58L817.51 90.58zM860.81 215.58L904.11 240.58L904.11 290.58L860.81 315.58L817.51 290.58L817.51 240.58zM817.51 440.58L860.81 465.58L860.81 515.58L817.51 540.58L774.2 515.58L774.2 465.58zM947.41 215.58L990.72 240.58L990.72 290.58L947.41 315.58L904.11 290.58L904.11 240.58zM904.11 290.58L947.41 315.58L947.41 365.58L904.11 390.58L860.81 365.58L860.81 315.58zM947.41 365.58L990.72 390.58L990.72 440.58L947.41 465.58L904.11 440.58L904.11 390.58zM990.72 -9.42L1034.02 15.58L1034.02 65.58L990.72 90.58L947.41 65.58L947.41 15.58zM990.72 140.58L1034.02 165.58L1034.02 215.58L990.72 240.58L947.41 215.58L947.41 165.58zM1034.02 215.58L1077.32 240.58L1077.32 290.58L1034.02 315.58L990.72 290.58L990.72 240.58zM990.72 440.58L1034.02 465.58L1034.02 515.58L990.72 540.58L947.41 515.58L947.41 465.58zM1034.02 515.58L1077.32 540.58L1077.32 590.58L1034.02 615.58L990.72 590.58L990.72 540.58zM1120.62 65.58L1163.92 90.58L1163.92 140.58L1120.62 165.58L1077.32 140.58L1077.32 90.58zM1120.62 215.58L1163.92 240.58L1163.92 290.58L1120.62 315.58L1077.32 290.58L1077.32 240.58zM1207.23 65.58L1250.53 90.58L1250.53 140.58L1207.23 165.58L1163.92 140.58L1163.92 90.58zM1163.92 440.58L1207.23 465.58L1207.23 515.58L1163.92 540.58L1120.62 515.58L1120.62 465.58zM1293.83 215.58L1337.13 240.58L1337.13 290.58L1293.83 315.58L1250.53 290.58L1250.53 240.58zM1250.53 440.58L1293.83 465.58L1293.83 515.58L1250.53 540.58L1207.23 515.58L1207.23 465.58zM1337.13 -9.42L1380.44 15.58L1380.44 65.58L1337.13 90.58L1293.83 65.58L1293.83 15.58zM1467.04 215.58L1510.35 240.58L1510.35 290.58L1467.04 315.58L1423.74 290.58L1423.74 240.58zM1423.74 290.58L1467.04 315.58L1467.04 365.58L1423.74 390.58L1380.44 365.58L1380.44 315.58z" stroke="rgba(6, 80, 156, 0.93)" stroke-width="2"></path></g><defs><mask id="SvgjsMask1001"><rect width="1440" height="560" fill="#ffffff"></rect></mask></defs></svg>