<svg xmlns="http://www.w3.org/2000/svg" version="1.1" xmlns:xlink="http://www.w3.org/1999/xlink" xmlns:svgjs="http://svgjs.dev/svgjs" width="1440" height="550" preserveAspectRatio="none" viewBox="0 0 1440 550"><g mask="url(&quot;#SvgjsMask1006&quot;)" fill="none"><rect width="1440" height="550" x="0" y="0" fill="rgba(13, 22, 31, 1)"></rect><path d="M8 550L558 0L609 0L59 550z" fill="url(&quot;#SvgjsLinearGradient1007&quot;)"></path><path d="M376.8 550L926.8 0L1211.8 0L661.8 550z" fill="url(&quot;#SvgjsLinearGradient1007&quot;)"></path><path d="M666.6 550L1216.6 0L1339.6 0L789.6 550z" fill="url(&quot;#SvgjsLinearGradient1007&quot;)"></path><path d="M1422 550L872 0L732.5 0L1282.5 550z" fill="url(&quot;#SvgjsLinearGradient1008&quot;)"></path><path d="M1097.2 550L547.2 0L470.70000000000005 0L1020.7 550z" fill="url(&quot;#SvgjsLinearGradient1008&quot;)"></path><path d="M750.4 550L200.39999999999998 0L-258.6 0L291.4 550z" fill="url(&quot;#SvgjsLinearGradient1008&quot;)"></path><path d="M896.9292870162623 550L1440 6.929287016262265L1440 550z" fill="url(&quot;#SvgjsLinearGradient1007&quot;)"></path><path d="M0 550L543.0707129837377 550L 0 6.929287016262265z" fill="url(&quot;#SvgjsLinearGradient1008&quot;)"></path></g><defs><mask id="SvgjsMask1006"><rect width="1440" height="550" fill="#ffffff"></rect></mask><linearGradient x1="0%" y1="100%" x2="100%" y2="0%" id="SvgjsLinearGradient1007"><stop stop-color="rgba(77, 89, 101, 0.56)" offset="0"></stop><stop stop-opacity="0" stop-color="rgba(77, 89, 101, 0.56)" offset="0.66"></stop></linearGradient><linearGradient x1="100%" y1="100%" x2="0%" y2="0%" id="SvgjsLinearGradient1008"><stop stop-color="rgba(77, 89, 101, 0.56)" offset="0"></stop><stop stop-opacity="0" stop-color="rgba(77, 89, 101, 0.56)" offset="0.66"></stop></linearGradient></defs></svg>